[2026-03-14 19:31:12] [INFO] Jarvis Desktop launcher started.
[2026-03-14 19:31:12] [INFO] Runtime log path: C:\Jarvis\logs\runtime_2026-03-14_19-31-12.txt
[2026-03-14 19:31:12] [INFO] Launcher executable: C:\Users\anden\AppData\Local\Python\pythoncore-3.14-64\pythonw.exe
[2026-03-14 19:31:12] [INFO] Root directory: C:\Jarvis
[2026-03-14 19:31:12] [INFO] Target script: C:\Jarvis\jarvis_desktop_test.py
[2026-03-14 19:31:12] [INFO] Diagnostics script: C:\Jarvis\desktop\jarvis_diagnostics.pyw
[2026-03-14 19:31:12] [INFO] Recovery attempts allowed: 3
[2026-03-14 19:31:12] [INFO] Voice hook ready: C:\Jarvis\jarvis_voice.py
[2026-03-14 19:31:12] [INFO] Starting desktop renderer process. attempt=1
[2026-03-14 19:31:12] [INFO] Child executable: C:\Users\anden\AppData\Local\Python\pythoncore-3.14-64\pythonw.exe
[2026-03-14 19:31:13] [STDOUT] Jarvis Desktop Concept 1 - Version 1.02
[2026-03-14 19:31:13] [STDOUT] Hotkey: Ctrl + Alt + End
[2026-03-14 19:31:13] [STDERR] Traceback (most recent call last):
[2026-03-14 19:31:13] [STDERR]   File "C:\Jarvis\jarvis_desktop_test.py", line 44, in <module>
[2026-03-14 19:31:13] [STDERR]     raise SystemExit(main())
[2026-03-14 19:31:13] [STDERR]                      ~~~~^^
[2026-03-14 19:31:13] [STDERR]   File "C:\Jarvis\jarvis_desktop_test.py", line 36, in main
[2026-03-14 19:31:13] [STDERR]     raise RuntimeError("Jarvis test crash triggered intentionally")
[2026-03-14 19:31:13] [STDERR] RuntimeError: Jarvis test crash triggered intentionally
[2026-03-14 19:31:13] [INFO] Desktop renderer exited. exit_code=1
[2026-03-14 19:31:13] [WARN] Recovery attempt 1/3
[2026-03-14 19:31:14] [INFO] Starting desktop renderer process. attempt=2
[2026-03-14 19:31:14] [INFO] Child executable: C:\Users\anden\AppData\Local\Python\pythoncore-3.14-64\pythonw.exe
[2026-03-14 19:31:14] [STDOUT] Jarvis Desktop Concept 1 - Version 1.02
[2026-03-14 19:31:14] [STDOUT] Hotkey: Ctrl + Alt + End
[2026-03-14 19:31:14] [STDERR] Traceback (most recent call last):
[2026-03-14 19:31:14] [STDERR]   File "C:\Jarvis\jarvis_desktop_test.py", line 44, in <module>
[2026-03-14 19:31:14] [STDERR]     raise SystemExit(main())
[2026-03-14 19:31:14] [STDERR]                      ~~~~^^
[2026-03-14 19:31:14] [STDERR]   File "C:\Jarvis\jarvis_desktop_test.py", line 36, in main
[2026-03-14 19:31:14] [STDERR]     raise RuntimeError("Jarvis test crash triggered intentionally")
[2026-03-14 19:31:14] [STDERR] RuntimeError: Jarvis test crash triggered intentionally
[2026-03-14 19:31:14] [INFO] Desktop renderer exited. exit_code=1
[2026-03-14 19:31:14] [WARN] Recovery attempt 2/3
[2026-03-14 19:31:16] [INFO] Starting desktop renderer process. attempt=3
[2026-03-14 19:31:16] [INFO] Child executable: C:\Users\anden\AppData\Local\Python\pythoncore-3.14-64\pythonw.exe
[2026-03-14 19:31:16] [STDOUT] Jarvis Desktop Concept 1 - Version 1.02
[2026-03-14 19:31:16] [STDOUT] Hotkey: Ctrl + Alt + End
[2026-03-14 19:31:16] [STDERR] Traceback (most recent call last):
[2026-03-14 19:31:16] [STDERR]   File "C:\Jarvis\jarvis_desktop_test.py", line 44, in <module>
[2026-03-14 19:31:16] [STDERR]     raise SystemExit(main())
[2026-03-14 19:31:16] [STDERR]                      ~~~~^^
[2026-03-14 19:31:16] [STDERR]   File "C:\Jarvis\jarvis_desktop_test.py", line 36, in main
[2026-03-14 19:31:16] [STDERR]     raise RuntimeError("Jarvis test crash triggered intentionally")
[2026-03-14 19:31:16] [STDERR] RuntimeError: Jarvis test crash triggered intentionally
[2026-03-14 19:31:16] [INFO] Desktop renderer exited. exit_code=1
[2026-03-14 19:31:16] [ERROR] Crash log written: C:\Jarvis\logs\crash\crash_2026-03-14_19-31-16.txt
[2026-03-14 19:31:16] [INFO] Trying voice line 'Uhm..... Sir, I seem to be malfunctioning.' using voice --text --mode
[2026-03-14 19:31:21] [VOICE_STDOUT] WARNING: malfunction post-process failed, using clean TTS: No module named 'pydub'
[2026-03-14 19:31:21] [VOICE_STDERR] [mp3 @ 0000027D59AFE600] Estimating duration from bitrate, this may be inaccurate
[2026-03-14 19:31:21] [VOICE_STDERR] Input #0, mp3, from 'C:/Users/anden/AppData/Local/Temp/tmp1rgjvy1x.mp3':
[2026-03-14 19:31:21] [VOICE_STDERR]   Duration: 00:00:04.08, start: 0.000000, bitrate: 48 kb/s
[2026-03-14 19:31:21] [VOICE_STDERR]   Stream #0:0: Audio: mp3 (mp3float), 24000 Hz, mono, fltp, 48 kb/s
[2026-03-14 19:31:21] [INFO] Voice line completed: Uhm..... Sir, I seem to be malfunctioning.
[2026-03-14 19:31:21] [INFO] Failure voice step 1/3 success=True line=Uhm..... Sir, I seem to be malfunctioning.
[2026-03-14 19:31:22] [INFO] Trying voice line 'Attempting restart.' using voice --text --mode
[2026-03-14 19:31:25] [VOICE_STDOUT] WARNING: malfunction post-process failed, using clean TTS: No module named 'pydub'
[2026-03-14 19:31:25] [VOICE_STDERR] [mp3 @ 0000021A15491F40] Estimating duration from bitrate, this may be inaccurate
[2026-03-14 19:31:25] [VOICE_STDERR] Input #0, mp3, from 'C:/Users/anden/AppData/Local/Temp/tmpcpglv5pk.mp3':
[2026-03-14 19:31:25] [VOICE_STDERR]   Duration: 00:00:02.14, start: 0.000000, bitrate: 48 kb/s
[2026-03-14 19:31:25] [VOICE_STDERR]   Stream #0:0: Audio: mp3 (mp3float), 24000 Hz, mono, fltp, 48 kb/s
[2026-03-14 19:31:25] [INFO] Voice line completed: Attempting restart.
[2026-03-14 19:31:25] [INFO] Failure voice step 2/3 success=True line=Attempting restart.
[2026-03-14 19:31:26] [INFO] Trying voice line 'Restart failed.' using voice --text --mode
[2026-03-14 19:31:30] [VOICE_STDOUT] WARNING: malfunction post-process failed, using clean TTS: No module named 'pydub'
[2026-03-14 19:31:30] [VOICE_STDERR] [mp3 @ 000001F1B151CD00] Estimating duration from bitrate, this may be inaccurate
[2026-03-14 19:31:30] [VOICE_STDERR] Input #0, mp3, from 'C:/Users/anden/AppData/Local/Temp/tmpcjjvo7tv.mp3':
[2026-03-14 19:31:30] [VOICE_STDERR]   Duration: 00:00:02.04, start: 0.000000, bitrate: 48 kb/s
[2026-03-14 19:31:30] [VOICE_STDERR]   Stream #0:0: Audio: mp3 (mp3float), 24000 Hz, mono, fltp, 48 kb/s
[2026-03-14 19:31:30] [INFO] Voice line completed: Restart failed.
[2026-03-14 19:31:30] [INFO] Failure voice step 3/3 success=True line=Restart failed.
[2026-03-14 19:31:30] [INFO] Diagnostics process launched.
